HIERARCHY
ROOT Hips
{
  OFFSET -195.929 101.931 -187.507
  CHANNELS 6 Xposition Yposition Zposition Zrotation Xrotation Yrotation
  JOINT ToSpine
  {
    OFFSET -2.69724 7.43032 -0.144315
    CHANNELS 3 Zrotation Xrotation Yrotation
    JOINT Spine
    {
      OFFSET -0.0310711 10.7595 1.96963
      CHANNELS 3 Zrotation Xrotation Yrotation
      JOINT Spine1
      {
        OFFSET 19.9056 3.91189 0.764692
        CHANNELS 3 Zrotation Xrotation Yrotation
        JOINT Neck
        {
          OFFSET 25.9749 7.03908 -0.130764
          CHANNELS 3 Zrotation Xrotation Yrotation
          JOINT Head
          {
            OFFSET 9.52751 0.295786 -0.907742
            CHANNELS 3 Zrotation Xrotation Yrotation
            End Site
            {
              OFFSET 16.4037 0.713936 2.7358
            }
          }
        }
        JOINT LeftShoulder
        {
          OFFSET 17.7449 4.33886 11.7777
          CHANNELS 3 Zrotation Xrotation Yrotation
          JOINT LeftArm
          {
            OFFSET 0.911315 1.27913 9.80584
            CHANNELS 3 Zrotation Xrotation Yrotation
            JOINT LeftForeArm
            {
              OFFSET 28.6126 1.18197 -3.53199
              CHANNELS 3 Zrotation Xrotation Yrotation
              JOINT LeftHand
              {
                OFFSET 27.5088 0.0218783 0.327423
                CHANNELS 3 Zrotation Xrotation Yrotation
                End Site
                {
                  OFFSET 18.6038 -0.000155887 0.382096
                }
              }
            }
          }
        }
        JOINT RightShoulder
        {
          OFFSET 17.1009 2.89543 -12.2328
          CHANNELS 3 Zrotation Xrotation Yrotation
          JOINT RightArm
          {
            OFFSET 1.4228 0.178766 -10.211
            CHANNELS 3 Zrotation Xrotation Yrotation
            JOINT RightForeArm
            {
              OFFSET 28.733 1.87905 2.64907
              CHANNELS 3 Zrotation Xrotation Yrotation
              JOINT RightHand
              {
                OFFSET 27.4588 0.290562 -0.101845
                CHANNELS 3 Zrotation Xrotation Yrotation
                End Site
                {
                  OFFSET 17.8396 -0.255518 -0.000602873
                }
              }
            }
          }
        }
      }
    }
  }
  JOINT LeftUpLeg
  {
    OFFSET -5.61296 -2.22332 -10.2353
    CHANNELS 3 Zrotation Xrotation Yrotation
    JOINT LeftLeg
    {
      OFFSET 2.56703 -44.7417 -7.93097
      CHANNELS 3 Zrotation Xrotation Yrotation
      JOINT LeftFoot
      {
        OFFSET 3.16933 -46.5642 -3.96578
        CHANNELS 3 Zrotation Xrotation Yrotation
        JOINT LeftToeBase
        {
          OFFSET 0.346054 -6.02161 12.8035
          CHANNELS 3 Zrotation Xrotation Yrotation
          End Site
          {
            OFFSET 0.134235 -1.35082 5.13018
          }
        }
      }
    }
  }
  JOINT RightUpLeg
  {
    OFFSET -5.7928 -1.72406 10.6446
    CHANNELS 3 Zrotation Xrotation Yrotation
    JOINT RightLeg
    {
      OFFSET -2.57161 -44.7178 -7.85259
      CHANNELS 3 Zrotation Xrotation Yrotation
      JOINT RightFoot
      {
        OFFSET -3.10148 -46.5936 -4.03391
        CHANNELS 3 Zrotation Xrotation Yrotation
        JOINT RightToeBase
        {
          OFFSET -0.0828122 -6.13587 12.8035
          CHANNELS 3 Zrotation Xrotation Yrotation
          End Site
          {
            OFFSET -0.131328 -1.35082 5.13018
          }
        }
      }
    }
  }
}
MOTION
Frames:	19
Frame Time:	0.0333333
-134.758 103.071 -127.64 -80.626 40.9206 171.7 -70.1915 0 88.8779 91.7386 69.9373 -11.1743 2.30421 18.29 3.29 -137.526 15.8877 174.114 -149.749 51.6568 160.496 2.74619 0.196282 -28.1639 -60.9546 27.663 -136.034 14.8768 18.8513 -34.5334 7.0939 -0.448089 -5.32232 0.555928 -2.31539 30.9076 -105.538 -52.9562 65.6429 -0.102077 -35.3477 3.29604 2.30362 -0.041477 -3.22476 -67.9178 -11.6382 87.0257 -1.35886 38.9222 -6.61192 5.57675 4.03513 -0.689698 -6.50538 -24.9644 11.6498 -40.7217 3.02741 88.3929 1.99832 42.0928 4.33856 -5.41538 -4.78688 0.942687 6.24364 1.56801 -17.5703 
-138.108 104.148 -130.968 -80.2294 38.8923 171.766 -70.1915 0 88.8779 89.1102 69.8356 -8.28084 2.47885 18.1506 3.63169 -137.32 16.6517 173.677 -150.305 52.7148 160.628 2.70677 -0.0783663 -28.2204 -60.1108 26.0058 -138.843 15.0143 18.1803 -35.813 8.28455 -0.578751 -6.07614 0.494426 -2.02393 30.1004 -107.763 -53.1416 60.3695 0.477847 -36.9448 3.64121 1.14583 -0.00623655 -1.83926 -72.9613 -8.68325 95.2062 2.07582 32.9231 -18.4888 4.5405 4.0213 -0.529583 -5.85262 -21.1994 10.508 -42.9256 2.15928 85.6519 1.30422 29.0174 5.85263 -4.98827 -4.72982 0.906745 4.96092 6.02274 -16.4439 
-141.46 104.441 -133.964 -79.1703 35.9024 171.044 -70.1915 0 88.8779 84.7247 69.2422 -4.05908 2.50328 17.486 3.99266 -137.085 17.2893 173.209 -149.942 53.3836 160.158 2.66721 -0.203806 -28.0068 -59.5297 25.0431 -141.323 14.6558 17.5879 -35.904 7.99097 -0.636818 -7.14538 0.457743 -1.83068 29.7177 -108.618 -52.8519 56.8272 0.853665 -37.3901 4.12131 -1.54731 0.0381694 -2.34757 -76.6981 -7.50109 98.7751 2.81723 28.1255 -25.6359 3.54452 4.52989 -0.354535 -5.53252 -19.265 10.5626 -43.2503 0.198181 83.5901 1.7521 21.1045 5.94108 -5.08565 -5.29529 0.930025 5.04761 4.71659 -16.0317 
-144.725 103.826 -137.505 -79.1101 32.9286 172.07 -70.1915 0 88.8779 84.9454 68.4471 -4.44412 1.231 16.2541 5.53185 -137.153 17.8535 173.193 -150.578 54.0792 159.722 2.68341 -0.305732 -28.3742 -58.9869 24.8274 -141.91 15.4244 18.1271 -36.7972 8.47381 -0.710021 -7.60437 0.513152 -2.22623 29.0946 -109.672 -52.293 53.9424 0.932536 -37.4825 3.97545 -2.07724 0.0332678 -1.75019 -78.9643 -4.89584 99.962 2.82448 28.3343 -30.3124 4.0375 4.46987 -0.435257 -5.62885 -20.1005 9.79252 -43.858 0.0223394 83.3094 2.29591 18.5066 3.1642 -5.00912 -5.68873 0.935203 5.02842 5.17806 -16.2086 
-148.446 102.67 -141.12 -79.5087 30.989 173.553 -70.1915 0 88.8779 87.5533 67.6578 -5.88431 0.00687057 15.2232 6.26018 -137.998 18.5077 174.386 -151.83 54.9301 160.816 2.87662 0.235429 -29.4881 -58.6297 24.8888 -141.579 16.3895 19.308 -37.1124 8.85026 -0.711789 -7.24384 0.55402 -2.5499 28.5169 -110.98 -51.0409 52.5245 0.448137 -37.222 2.44588 -1.21848 0.0484886 -3.34266 -80.5359 -3.57009 96.6812 2.80687 31.2746 -28.5328 3.33176 3.93863 -0.345843 -6.04084 -22.7016 8.31023 -44.219 0.497558 82.7326 2.17649 21.3752 1.58481 -4.79493 -5.50285 0.914121 2.98766 10.2116 -13.7699 
-152.342 101.832 -144.471 -80.4565 31.0676 174.502 -70.1915 0 88.8779 90.0366 67.8298 -6.82255 0.278787 15.4685 6.55482 -139.585 18.9752 175.406 -151.025 55.0089 159.823 3.00713 0.238755 -30.8686 -58.3326 26.2846 -139.963 17.068 20.5633 -36.7597 11.0351 -0.818886 -6.58839 0.552467 -2.56359 28.3139 -111.642 -50.0694 52.5445 0.0350381 -37.4414 1.14262 0.232923 0.0150872 -4.62043 -83.4767 -4.78273 87.4827 0.0364856 33.1978 -18.4045 2.01994 4.67091 -0.103911 -6.1409 -23.3114 7.60476 -44.3957 0.395075 80.5411 2.22031 26.1251 0.966923 -5.21237 1.88884 0.753494 2.8251 10.0345 -13.3194 
-155.727 101.392 -147.594 -81.0138 31.5655 177.686 -70.1915 0 88.8779 95.0369 67.4355 -7.70496 0.969355 15.4596 6.9299 -140.295 19.3693 176.78 -149.858 54.9937 159.738 3.28387 0.605979 -32.9955 -57.4801 27.2831 -138.199 17.4752 22.6127 -35.0071 11.3304 -0.689254 -5.11298 0.55724 -2.59506 28.3147 -110.236 -49.447 56.4337 -0.778862 -38.5436 -0.160721 -0.158997 0.0411409 -6.29286 -82.0041 -1.70071 84.6062 -2.83783 40.6885 -11.9497 0.0676017 4.45235 0.194768 -5.22341 -19.5891 4.55538 -44.7613 2.06287 76.523 2.19413 31.5988 3.05024 -3.91542 0.0146638 0.643552 1.28778 16.9757 -13.1264 
-158.777 100.921 -150.514 -80.3295 32.7034 179.089 -70.1915 0 88.8779 96.4908 67.589 -5.99821 2.13704 15.9805 6.90165 -141.596 19.3705 177.099 -149.119 54.7736 159.253 3.28974 0.946208 -32.3641 -55.5499 30.6771 -138.79 15.8634 24.9773 -29.4611 11.4503 -0.367017 -1.92611 0.531747 -2.47241 27.9091 -109.019 -50.0043 60.2865 0.207037 -38.333 1.69884 1.7919 -0.0670305 -6.98628 -76.1515 1.56391 87.3172 -4.17419 52.2508 -10.8216 -1.99662 5.75805 0.638985 -2.25075 -6.72684 3.33386 -44.2639 4.28317 75.0693 1.74363 36.1034 4.08017 -4.55836 -3.30335 0.826681 1.37717 20.5656 -14.7169 
-161.609 100.769 -153.253 -79.8268 32.5251 179.724 -70.1915 0 88.8779 98.6766 67.3564 -6.78579 2.02841 16.0665 7.25878 -141.819 19.2395 176.5 -149.887 55.0058 160.322 3.22012 0.740982 -32.0752 -54.9687 34.31 -137.108 13.2472 28.2061 -23.2635 10.4071 -0.438164 -3.03875 0.510509 -2.33861 27.8152 -106.195 -50.5951 64.5622 1.42195 -34.6122 5.22849 2.78435 -0.098821 -5.62731 -69.37 2.08276 85.8459 -6.83242 63.7819 -7.6651 -0.648459 8.09801 0.587804 -2.5898 -3.46473 8.34786 -44.7721 5.295 74.4905 1.9488 38.578 4.50181 -5.16479 -3.94307 0.900181 2.5523 17.8032 -16.0082 
-164.221 100.617 -155.934 -80.4401 31.8839 -178.916 -70.1915 0 88.8779 101.814 66.9112 -8.76905 2.48995 16.2696 7.3636 -141.581 19.42 175.311 -150.174 55.4807 160.668 3.15073 0.475844 -31.898 -63.2539 41.6099 -130.191 7.85927 35.7404 -18.3956 8.97944 -0.249531 -1.45837 0.495839 -2.24577 27.7457 -101.906 -51.2304 69.9954 1.8115 -29.2119 8.89068 3.64008 -0.0912005 -3.8436 -62.7857 2.40788 84.0875 -11.1455 73.191 0.771509 1.31715 8.70407 0.249827 -4.74157 -13.252 12.1193 -46.6956 6.3196 73.9505 2.32804 40.2984 3.38668 -5.30929 -7.26707 0.997067 2.20898 19.807 -16.0589 
-166.98 100.759 -158.925 -81.201 31.719 -177.453 -70.1915 0 88.8779 104.596 66.7775 -10.2575 2.97271 16.6732 7.16004 -141.614 19.7033 174.346 -151.423 56.1984 160.947 3.2086 0.571661 -32.2986 -83.9325 49.1876 -115.828 -1.64984 55.5935 -6.04446 6.11308 -0.174082 -1.53856 0.592756 -2.846 28.1964 -95.654 -51.6233 77.2192 2.74929 -23.1298 13.1791 4.80632 -0.115208 -3.52907 -57.2095 2.74812 82.3468 -16.396 78.5937 10.1826 1.80029 8.01617 0.117344 -5.01939 -15.1442 12.1392 -49.8857 8.40773 74.734 3.04054 39.8338 1.64557 -5.45408 -8.51248 1.03576 2.87359 17.6065 -16.5853 
-169.985 100.918 -161.754 -80.377 32.7939 -177.973 -70.1915 0 88.8779 104.338 67.4057 -8.79659 2.69746 17.6325 6.58691 -140.382 20.0409 173.367 -151.414 56.7601 161.251 3.21442 0.472161 -32.5629 -90.5142 50.0172 -109.256 -14.1964 62.4344 10.2271 2.93841 -0.081178 -1.45568 0.589713 -2.79327 28.44 -85.8016 -52.5726 86.1183 4.61172 -15.1151 18.074 5.96873 -0.139814 -3.36629 -51.2702 2.0909 82.0971 -20.2981 80.8171 16.0216 2.93949 8.857 -0.059735 -5.54914 -18.6491 12.2891 -51.8355 9.55823 75.9624 3.57955 39.6482 1.23055 -5.71429 -10.3378 1.08849 2.81624 16.7903 -16.1647 
-173.107 101.264 -164.622 -78.947 34.6396 -179.841 -70.1915 0 88.8779 102.757 68.6406 -6.77299 2.17276 18.8661 6.28192 -139.945 20.386 172.951 -151.107 57.1085 160.776 3.23489 0.460934 -32.7975 -96.3006 50.0715 -102.424 -21.1789 67.0376 19.0735 1.65476 -0.0343653 -0.810401 0.645813 -3.166 28.411 -75.3402 -52.0782 95.7334 6.10627 -8.67476 22.6844 7.7544 -0.0957081 -1.90438 -46.214 0.791789 82.7469 -17.7065 79.7949 13.6216 3.69481 8.03429 -0.240318 -6.01864 -21.9335 11.6302 -53.676 9.53014 76.5648 3.6137 39.3556 3.19014 -6.41552 -12.3659 1.14311 2.30168 18.2264 -15.6626 
-176.197 101.535 -167.541 -78.1548 36.7847 178.993 -70.1915 0 88.8779 103.014 69.6285 -6.28882 1.61713 19.948 5.64516 -139.814 20.2069 172.497 -151.142 57.0116 160.924 3.2349 0.573315 -32.5641 -101.45 49.5639 -95.4989 -21.8081 69.2389 21.0283 0.25688 -2.02047e-005 -0.139115 0.602262 -2.90205 28.2484 -76.9416 -51.9509 96.2413 7.4821 -8.74778 27.647 8.32901 -0.16446 -2.8098 -42.5046 0.0504734 83.1823 -12.0813 76.1699 8.07193 4.11732 7.5864 -0.336255 -6.42784 -24.4564 12.0166 -56.5392 9.3041 76.2593 4.05256 38.4662 4.88674 -6.56315 -14.5107 1.17687 0.759799 20.4417 -13.4781 
-179.189 101.835 -170.692 -77.9368 38.1491 177.918 -70.1915 0 88.8779 102.365 70.2953 -6.24095 1.65526 20.3687 5.55494 -140.444 19.9961 172.402 -150.505 56.6016 160.283 3.20511 0.645213 -32.1144 -106.436 49.062 -88.8242 -22.4296 71.1973 23.1792 -0.392226 0.00977581 1.23541 0.595608 -2.87033 28.1577 -76.3479 -50.9724 99.4225 8.52016 -9.37888 31.1748 8.42451 -0.102101 -1.86514 -40.2347 -0.954947 83.7044 -7.60091 70.0509 2.94948 4.11502 7.20642 -0.349431 -6.86798 -27.4869 14.652 -60.2677 9.06552 76.1802 3.90128 36.6219 6.44815 -7.09206 -15.3178 1.18204 -0.280025 20.925 -11.6781 
-182.192 102.104 -173.594 -77.674 39.3625 176.668 -70.1915 0 88.8779 101.46 70.5744 -6.07691 1.87089 20.381 5.1851 -141.06 19.6751 172.762 -150.325 56.1763 160.542 3.21556 0.778358 -31.9555 -110.403 47.8748 -82.5133 -19.5338 69.72 21.5225 -0.610962 0.00918122 1.85646 0.541485 -2.5315 27.9669 -74.1193 -49.9908 104.42 8.94992 -9.36547 33.2427 8.83455 -0.0599663 -1.20262 -39.2462 -2.22821 84.5317 -4.20903 60.74 0.589468 4.04576 7.15362 -0.338741 -7.36396 -30.9291 14.2425 -63.9085 8.28986 75.9528 3.73074 34.8449 8.93553 -7.12323 -15.794 1.18634 -0.104475 20.3 -11.7583 
-184.802 102.277 -176.422 -75.8635 40.9449 175.224 -70.1915 0 88.8779 98.0007 71.0756 -2.02538 2.46431 20.5832 4.14402 -141.021 19.1085 172.575 -149.371 55.4217 160.679 3.12916 0.488947 -31.6488 -113.324 46.5682 -76.1878 -17.299 68.1871 20.058 -2.36461 0.00859694 1.7739 0.505934 -2.25516 28.3198 -72.6028 -48.608 108.654 9.89475 -10.2009 34.9204 8.61292 -0.0254226 -0.731291 -38.0339 -1.99863 85.4419 -2.56313 49.6554 -1.75451 3.25747 6.22225 -0.235691 -7.24817 -30.139 14.2924 -66.3268 9.03131 76.8512 3.40161 32.2431 9.63858 -7.08643 -16.2029 1.19116 -1.18645 21.2605 -10.1005 
-187.351 102.477 -179.121 -74.2581 42.5811 173.315 -70.1915 0 88.8779 95.4244 71.8176 0.38168 2.95619 21.0988 3.53257 -141.696 18.9622 172.941 -149.591 55.1817 160.264 3.22378 0.814778 -31.9663 -113.339 45.6141 -73.3782 -17.062 67.566 19.5306 -2.25222 0.00236965 2.14805 0.511678 -2.29878 28.2652 -71.4307 -47.4656 112.142 10.9436 -11.1159 36.4676 8.13123 0.00429908 -0.302041 -38.729 -2.11084 87.1015 -1.78694 36.3053 -5.08762 3.71023 6.13709 -0.317713 -6.70233 -26.4139 17.9024 -68.8638 8.89148 77.5164 3.09375 29.8482 11.6429 -7.96451 -15.2263 1.17054 -0.917159 19.3258 -9.77739 
-190.016 102.568 -181.783 -73.355 44.401 171.767 -70.1915 0 88.8779 93.9092 72.552 1.71902 4.01111 21.8451 2.66211 -141.624 18.7859 173.295 -148.985 54.8538 160.544 3.42354 1.59104 -32.4131 -113.902 44.6266 -71.3311 -15.4279 65.6418 18.0732 -6.16471 0.024294 1.4324 0.449231 -1.87437 28.3935 -71.8229 -46.8442 113.28 12.7097 -12.6838 38.4384 7.89703 0.0324864 0.14346 -40.6325 -1.8981 92.2043 -0.511445 23.7973 -9.47882 1.88762 5.93923 -0.0130043 -6.01893 -19.0919 18.6172 -71.6706 8.27347 77.8903 2.68547 28.0596 14.8524 -7.51214 -12.3252 1.15775 0.895535 12.9666 -10.5033 
